<?xml version="1.0" encoding="UTF-8"?>
<svg width="140px" height="19px" viewBox="0 0 140 19" version="1.1" xmlns="http://www.w3.org/2000/svg" xmlns:xlink="http://www.w3.org/1999/xlink">
    <title>APPROACH</title>
    <g id="Symbols" stroke="none" stroke-width="1" fill="none" fill-rule="evenodd">
        <g id="Shield" transform="translate(-145.000000, -388.000000)" fill="#FFFFFF" fill-rule="nonzero">
            <g id="APPROACH" transform="translate(145.609375, 388.199219)">
                <path d="M13.9101562,0.52734375 L16.359375,17.8007812 L12.4453125,17.8007812 L12.0820312,14.25 L5.71875,14.25 L3.7734375,17.8007812 L0,17.8007812 L9.83203125,0.52734375 L13.9101562,0.52734375 Z M10.9921875,4.4765625 L7.32421875,11.2734375 L11.7070312,11.2734375 L10.9921875,4.4765625 Z" id="Shape"></path>
                <path d="M33.6914062,1.86328125 C34.5273438,2.75390625 34.75,4.1328125 34.359375,6 C33.921875,8.0390625 33.0976562,9.48046875 31.8867188,10.3242188 C30.6757812,11.1679688 29.1132812,11.5898438 27.1992188,11.5898438 L23.53125,11.5898438 L22.21875,17.8007812 L18.6328125,17.8007812 L22.3007812,0.52734375 L29.8242188,0.52734375 C31.5585938,0.52734375 32.8476562,0.97265625 33.6914062,1.86328125 Z M28.6054688,3.52734375 L25.2421875,3.52734375 L24.1640625,8.61328125 L27.5273438,8.61328125 C28.3789062,8.61328125 29.0859375,8.40625 29.6484375,7.9921875 C30.2109375,7.578125 30.5859375,6.921875 30.7734375,6.0234375 C30.96875,5.125 30.8691406,4.484375 30.4746094,4.1015625 C30.0800781,3.71875 29.4570312,3.52734375 28.6054688,3.52734375 Z" id="Shape"></path>
                <path d="M49.6992188,1.86328125 C50.5351562,2.75390625 50.7578125,4.1328125 50.3671875,6 C49.9296875,8.0390625 49.1054688,9.48046875 47.8945312,10.3242188 C46.6835938,11.1679688 45.1210938,11.5898438 43.2070312,11.5898438 L39.5390625,11.5898438 L38.2265625,17.8007812 L34.640625,17.8007812 L38.3085938,0.52734375 L45.8320312,0.52734375 C47.5664062,0.52734375 48.8554688,0.97265625 49.6992188,1.86328125 Z M44.6132812,3.52734375 L41.25,3.52734375 L40.171875,8.61328125 L43.5351562,8.61328125 C44.3867188,8.61328125 45.09375,8.40625 45.65625,7.9921875 C46.21875,7.578125 46.59375,6.921875 46.78125,6.0234375 C46.9765625,5.125 46.8769531,4.484375 46.4824219,4.1015625 C46.0878906,3.71875 45.4648438,3.52734375 44.6132812,3.52734375 Z" id="Shape"></path>
                <path d="M61.0429688,16.875 C61.0507812,16.390625 61.1054688,15.8945312 61.2070312,15.3867188 L61.5234375,13.78125 C61.7421875,12.6796875 61.6972656,11.9453125 61.3886719,11.578125 C61.0800781,11.2109375 60.3945312,11.0273438 59.3320312,11.0273438 L55.6054688,11.0273438 L54.1757812,17.8007812 L50.6484375,17.8007812 L54.3164062,0.52734375 L62.7890625,0.52734375 C63.9921875,0.55078125 64.890625,0.69921875 65.484375,0.97265625 C66.078125,1.24609375 66.546875,1.6484375 66.890625,2.1796875 C67.171875,2.6171875 67.3652344,3.1015625 67.4707031,3.6328125 C67.5761719,4.1640625 67.5585938,4.76953125 67.4179688,5.44921875 C67.2382812,6.26953125 66.8574219,7.07617188 66.2753906,7.86914062 C65.6933594,8.66210938 64.890625,9.22265625 63.8671875,9.55078125 C64.59375,9.87109375 65.0605469,10.3261719 65.2675781,10.9160156 C65.4746094,11.5058594 65.4492188,12.40625 65.1914062,13.6171875 L64.9453125,14.7773438 C64.78125,15.5664062 64.6992188,16.1015625 64.6992188,16.3828125 C64.6992188,16.828125 64.8476562,17.15625 65.1445312,17.3671875 L65.0625,17.8007812 L61.0898438,17.8007812 C61.0585938,17.4179688 61.0429688,17.109375 61.0429688,16.875 Z M61.3945312,3.52734375 L57.1992188,3.52734375 L56.2148438,8.16796875 L60.3046875,8.16796875 C61.1171875,8.16796875 61.7460938,8.07421875 62.1914062,7.88671875 C62.9804688,7.55859375 63.4804688,6.91015625 63.6914062,5.94140625 C63.9101562,4.89453125 63.7109375,4.19140625 63.09375,3.83203125 C62.7421875,3.62890625 62.1757812,3.52734375 61.3945312,3.52734375 Z" id="Shape"></path>
                <path d="M84.5507812,2.015625 C85.9570312,3.6015625 86.3242187,5.9765625 85.6523437,9.140625 C84.9882812,12.2421875 83.609375,14.6171875 81.515625,16.265625 C79.9296875,17.609375 77.9023437,18.28125 75.4335937,18.28125 C72.9648437,18.28125 71.21875,17.609375 70.1953125,16.265625 C68.796875,14.6171875 68.4296875,12.2421875 69.09375,9.140625 C69.765625,5.9765625 71.1445312,3.6015625 73.2304687,2.015625 C74.8164062,0.671875 76.84375,0 79.3125,0 C81.78125,0 83.5273437,0.671875 84.5507812,2.015625 Z M78.6679687,3.05859375 C77.2382812,3.05859375 75.9863281,3.5859375 74.9121094,4.640625 C73.8378906,5.6953125 73.09375,7.1953125 72.6796875,9.140625 C72.265625,11.0859375 72.3710937,12.5859375 72.9960937,13.640625 C73.6210937,14.6953125 74.6484375,15.2226562 76.078125,15.2226562 C77.5078125,15.2226562 78.7558594,14.6953125 79.8222656,13.640625 C80.8886719,12.5859375 81.6289062,11.0859375 82.0429687,9.140625 C82.4492187,7.203125 82.3457031,5.70507812 81.7324219,4.64648438 C81.1191406,3.58789062 80.0976562,3.05859375 78.6679687,3.05859375 Z" id="Shape"></path>
                <path d="M99.2578125,0.52734375 L101.707031,17.8007812 L97.7929688,17.8007812 L97.4296875,14.25 L91.0664062,14.25 L89.1210938,17.8007812 L85.3476562,17.8007812 L95.1796875,0.52734375 L99.2578125,0.52734375 Z M96.3398438,4.4765625 L92.671875,11.2734375 L97.0546875,11.2734375 L96.3398438,4.4765625 Z" id="Shape"></path>
                <path d="M120.445312,3.05859375 C120.960937,4.12890625 121.128906,5.203125 120.949219,6.28125 L117.339844,6.28125 C117.285156,5.453125 117.117187,4.828125 116.835937,4.40625 C116.34375,3.65625 115.453125,3.28125 114.164062,3.28125 C112.851562,3.28125 111.703125,3.81054688 110.71875,4.86914062 C109.734375,5.92773438 109.039062,7.42578125 108.632812,9.36328125 C108.21875,11.3007812 108.308594,12.7519531 108.902344,13.7167969 C109.496094,14.6816406 110.410156,15.1640625 111.644531,15.1640625 C112.910156,15.1640625 113.964844,14.75 114.808594,13.921875 C115.269531,13.4765625 115.714844,12.8085938 116.144531,11.9179688 L119.71875,11.9179688 C119.007812,13.8007812 117.884766,15.3320312 116.349609,16.5117188 C114.814453,17.6914062 113.042969,18.28125 111.035156,18.28125 C108.550781,18.28125 106.765625,17.484375 105.679687,15.890625 C104.601562,14.2890625 104.359375,12.09375 104.953125,9.3046875 C105.59375,6.2890625 106.894531,3.96484375 108.855469,2.33203125 C110.566406,0.91015625 112.507812,0.19921875 114.679687,0.19921875 C117.585937,0.19921875 119.507812,1.15234375 120.445312,3.05859375 Z" id="Path"></path>
                <polygon id="Path" points="126.410156 10.0898438 124.78125 17.8007812 121.207031 17.8007812 124.875 0.52734375 128.449219 0.52734375 127.042969 7.11328125 133.792969 7.11328125 135.199219 0.52734375 138.785156 0.52734375 135.117188 17.8007812 131.53125 17.8007812 133.160156 10.0898438"></polygon>
            </g>
        </g>
    </g>
</svg>