<?xml version="1.0" encoding="UTF-8"?>
<svg width="184px" height="452.893091px" viewBox="0 0 184 452.893091" version="1.1" xmlns="http://www.w3.org/2000/svg" xmlns:xlink="http://www.w3.org/1999/xlink">
    <title>Glossy Pin</title>
    <defs>
        <radialGradient cx="-13.765405%" cy="-490.797939%" fx="-13.765405%" fy="-490.797939%" r="626.454757%" gradientTransform="translate(-0.1377, -4.908), scale(0.5198, 1), rotate(40.8657), translate(0.1377, 4.908)" id="radialGradient-1">
            <stop stop-color="#FFFFFF" offset="0%"></stop>
            <stop stop-color="#E4E4E4" offset="55%"></stop>
            <stop stop-color="#808080" offset="100%"></stop>
        </radialGradient>
        <radialGradient cx="-12.37841%" cy="-2.54332819e-14%" fx="-12.37841%" fy="-2.54332819e-14%" r="315.353869%" gradientTransform="translate(-0.1238, -0), scale(1, 0.4256), rotate(38.6901), translate(0.1238, 0)" id="radialGradient-2">
            <stop stop-color="#FFFFFF" offset="0%"></stop>
            <stop stop-color="#E4E4E4" offset="55%"></stop>
            <stop stop-color="#808080" offset="100%"></stop>
        </radialGradient>
    </defs>
    <g id="Glossy-Pin" stroke="none" stroke-width="1" fill="none" fill-rule="evenodd">
        <g id="Base" transform="translate(18.2323, 375.8931)" fill="url(#radialGradient-1)">
            <path d="M148.136791,4.54747351e-13 C134.210932,26.2520484 119.594016,49.9816086 104.286045,71.1886805 C102.129313,74.176533 92.0795169,76.1114099 74.1366559,76.9933111 C74.1139895,76.9988886 74.0912008,76.9977754 74.0684248,76.9966606 L74,77 C56.0572739,76.1114099 46.0074776,74.176533 43.8507461,71.1886805 C28.5427746,49.9816086 13.9258593,26.2520484 0,0 L148.136791,4.54747351e-13 Z" id="Combined-Shape"></path>
        </g>
        <g id="Rubber" transform="translate(0, 327.8931)">
            <path d="M184,14.6848373 L184,46.5 C184,54.5082643 142.810052,61 92,61 C41.1899485,61 0,54.5082643 0,46.5 L0,14.6848373 C0.634791991,22.607836 41.5811221,29 92,29 C142.810052,29 184,22.5082643 184,14.5 L183.99,14.684 L184,14.6848373 Z" id="Combined-Shape" fill="#0F57CA"></path>
            <path d="M92,0 C142.810052,0 184,6.4917357 184,14.5 C184,22.5082643 142.810052,29 92,29 C41.1899485,29 0,22.5082643 0,14.5 C0,6.4917357 41.1899485,0 92,0 Z" id="Path" fill="#1E4686"></path>
        </g>
        <g id="Body" transform="translate(18.232, 0)" fill="url(#radialGradient-2)">
            <path d="M73.530683,348.070055 C53.1834361,348.008171 0,344.876216 0,337.324567 C0,299.273595 16.0968783,242.297685 30.1703583,207.244707 C44.2438383,172.19173 49.4495783,164.946222 45.8716372,112.986375 C42.2936961,61.0265289 33.0394441,51.0236097 38.4799138,25.5881945 C42.1068936,8.63125109 53.9926313,0.101852912 74.1371268,0 L74,0.001 L74.068,0.001 L74.1371268,0 L74.137,0.001 L74.6018572,0.00558385094 C94.3813844,0.27328363 106.066503,8.80082053 109.657213,25.5881945 C115.097683,51.0236097 105.843431,61.0265289 102.26549,112.986375 C98.6875484,164.946222 103.893288,172.19173 117.966768,207.244707 C132.040248,242.297685 148.137127,299.273595 148.137127,337.324567 C148.137127,344.876216 94.9536907,348.008171 74.6064437,348.070055 Z" id="Combined-Shape"></path>
        </g>
        <g id="Neck-Rings" transform="translate(64.4699, 118.6608)" fill="#D60C0C">
            <path d="M0.718656533,22.9256311 C0.753958035,22.7776642 10.7780777,24.2676128 27.8992102,24.2676128 L27.8292257,24.2672971 L28.3099324,24.2670999 C45.0956531,24.2357603 54.9057348,22.7792552 54.9406567,22.9256311 C54.9406567,27.3208774 55.1628556,31.0923947 55.4480876,34.944673 C55.4023961,34.9997826 43.848749,36.3594047 27.8992102,36.3594047 L27.8292257,30.3132971 L27.7601031,36.3594047 C11.9802402,36.3594047 0.503236908,35.0285569 0.216582535,34.9468716 C0.496457633,31.0923947 0.718656533,27.3208774 0.718656533,22.9256311 Z" id="Combined-Shape"></path>
            <path d="M55.6593133,0 C55.3927005,4.45058949 55.1994721,8.55051165 55.0796922,12.3551173 C55.0737647,12.3947691 44.7045806,13.3779348 28.2916436,13.3988487 L27.8992102,13.3991872 L27.7601031,13.3991872 L27.3676696,13.3988487 C12.0136319,13.3792841 1.94866394,12.517624 0.709014293,12.3740617 L0.637555959,12.3653183 C0.599302208,12.3602737 0.579876015,12.3568228 0.579621067,12.3551173 C0.459841134,8.55051165 0.266612726,4.45058949 0,0 C-0.00178237717,0.0152969596 11.329682,0.951694399 27.8992102,0.951694399 L27.7601031,0.951694399 C44.3296313,0.951694399 55.6610956,0.0152969596 55.6593133,0 Z" id="Combined-Shape"></path>
        </g>
        <g id="Gloss" transform="translate(24.197, 3.307)" fill="#FFFFFF" fill-opacity="0.35">
            <path d="M0,331.584818 C0.732963607,302.781816 7.13542076,271.148997 19.2073715,236.686361 C42.4971998,180.89387 48.5562734,167.335742 43.9266352,109.586053 C38.0152947,72.4187017 34.3817218,47.8867892 36.3096772,30.968558 C38.6859833,10.2612302 47.5994111,1.7983443 65.2087706,0 C75.0019332,0 46.193961,4.26912223 43.4114009,38.1929635 C43.0743785,81.4525646 49.9642868,89.999644 51.7272743,131.318712 C54.0805823,193.310094 30.810656,223.168199 22.330908,278.84438 C18.6482691,303.023786 18.2882389,308.350613 17.1254435,334.317445 C17.1868874,335.188203 11.4784062,334.277327 0,331.584818 Z" id="Path-70"></path>
        </g>
        <path d="M92.3691071,0 L92.8338376,0.00558385094 C112.613365,0.27328363 124.298483,8.80082053 127.889193,25.5881945 C133.329663,51.0236097 124.075411,61.0265289 120.49747,112.986375 C116.919529,164.946222 122.125269,172.19173 136.198749,207.244707 C149.849666,241.245204 165.404299,295.871905 166.326062,333.846997 C177.276773,336.207658 183.80608,339.110461 183.99575,342.252255 L184,342.393091 L183.99,342.577091 L184,342.577929 L184,374.393091 C184,377.973127 175.768305,381.25009 162.125371,383.779492 C149.479891,406.918677 136.278304,428.019278 122.518361,447.081772 C120.36163,450.069624 110.311833,452.004501 92.3689722,452.886402 C92.3463058,452.89198 92.3235171,452.890867 92.3007411,452.889752 L92.2323163,452.893091 C74.2895902,452.004501 64.2397939,450.069624 62.0830624,447.081772 C48.3473382,428.05283 35.1680064,406.99295 22.5450669,383.902129 C8.50111514,381.3564 0,378.031242 0,374.393091 L0,342.577929 C0.148358942,344.429634 2.49859939,346.197723 6.65703804,347.820136 C2.36432574,346.143348 0,344.311744 0,342.393091 C0,339.139805 6.79765379,336.136794 18.2764328,333.71761 C19.2318774,295.748692 34.7668196,241.206851 48.4023387,207.244707 C62.4758187,172.19173 67.6815587,164.946222 64.1036176,112.986375 C60.5256765,61.0265289 51.2714245,51.0236097 56.7118942,25.5881945 C60.3026042,8.80082053 71.9877227,0.27328363 91.7672499,0.00558385094 L92.249,0.001 L92.2999804,0.001 L92.3691071,0 Z" id="Shadow" fill-opacity="0.35" fill="#000000"></path>
    </g>
</svg>