<?xml version="1.0" encoding="UTF-8"?>
<svg width="24px" height="24px" viewBox="0 0 24 24" version="1.1" xmlns="http://www.w3.org/2000/svg" xmlns:xlink="http://www.w3.org/1999/xlink">
    <title>Icon - Alley</title>
    <g id="Icon---Alley" stroke="none" stroke-width="1" fill="none" fill-rule="evenodd">
        <path d="M4,20 L4,10.625 L2.2,12 L1,10.4 L12,2 L23,10.4 L21.8,11.975 L20,10.625 L12,4.525 L6,9.1 L6,18 L11,18 C11,18.35 11.025,18.6916667 11.075,19.025 C11.125,19.3583333 11.2,19.6833333 11.3,20 L4,20 Z" id="Shape" fill="#000000" fill-rule="nonzero"></path>
        <path d="M18,23 C20.7614237,23 23,20.7614237 23,18 C23,15.2385763 20.7614237,13 18,13 C15.2385763,13 13,15.2385763 13,18 C13,20.7614237 15.2385763,23 18,23 Z M17.6875,14.5625 C18.032678,14.5625 18.3125,14.842322 18.3125,15.1875 C18.3125,15.532678 18.032678,15.8125 17.6875,15.8125 C17.342322,15.8125 17.0625,15.532678 17.0625,15.1875 C17.0625,14.842322 17.342322,14.5625 17.6875,14.5625 Z M17.0625,17.0625 C17.0625,16.717322 17.342322,16.4375 17.6875,16.4375 C18.032678,16.4375 18.3125,16.717322 18.3125,17.0625 C18.3125,17.407678 18.032678,17.6875 17.6875,17.6875 C17.342322,17.6875 17.0625,17.407678 17.0625,17.0625 Z M15.8125,15.8125 C16.157678,15.8125 16.4375,16.092322 16.4375,16.4375 C16.4375,16.782678 16.157678,17.0625 15.8125,17.0625 C15.467322,17.0625 15.1875,16.782678 15.1875,16.4375 C15.1875,16.092322 15.467322,15.8125 15.8125,15.8125 Z" id="Shape" fill="#000000" fill-rule="nonzero"></path>
    </g>
</svg>