<svg height="320" viewBox="0 0 320 320" width="320" xmlns="http://www.w3.org/2000/svg"><g fill="#000" fill-rule="evenodd"><g><g fill-rule="nonzero"><path d="m13 0c-1.990625 0-5 1-5 1v4c1.5 0 2.375.5 3.25 1s1.75 1 3.25 1c1.7625 0 5.5-.5 5.5-3s-4-4-7-4zm-9 3c0 1.103125.896875 2 2 2h1v-4h-1c-1.103125 0-2 .896875-2 2zm5 13c3 0 7-1.5 7-4s-3.7375-3-5.5-3c-1.5 0-2.375.5-3.25 1s-1.75 1-3.25 1v4s3.009375 1 5 1zm-9-3c0 1.103125.896875 2 2 2h1v-4h-1c-1.103125 0-2 .896875-2 2z" transform="translate(278 24)"/><path d="m10 18c1.25 0 2.3125-.4375 3.1875-1.3125s1.3125-1.9375 1.3125-3.1875-.4375-2.3125-1.3125-3.1875-1.9375-1.3125-3.1875-1.3125-2.3125.4375-3.1875 1.3125-1.3125 1.9375-1.3125 3.1875.4375 2.3125 1.3125 3.1875 1.9375 1.3125 3.1875 1.3125zm-2.925-10.3c.33333333-.18333333.6875-.32916667 1.0625-.4375s.75416667-.17916667 1.1375-.2125l-2.525-5.05h-2.5zm5.85 0 2.85-5.7h-2.525l-2.125 4.25.475.95c.2333333.06666667.4583333.1375.675.2125s.4333333.17083333.65.2875zm-8.525 9.1c-.28333333-.4833333-.50416667-1.0041667-.6625-1.5625s-.2375-1.1375-.2375-1.7375.07916667-1.1791667.2375-1.7375.37916667-1.0791667.6625-1.5625c-.7.2333333-1.275.6458333-1.725 1.2375s-.675 1.2791667-.675 2.0625.225 1.4708333.675 2.0625 1.025 1.0041667 1.725 1.2375zm11.2 0c.7-.2333333 1.275-.6458333 1.725-1.2375s.675-1.2791667.675-2.0625-.225-1.4708333-.675-2.0625-1.025-1.0041667-1.725-1.2375c.2833333.4833333.5041667 1.0041667.6625 1.5625s.2375 1.1375.2375 1.7375-.0791667 1.1791667-.2375 1.7375-.3791667 1.0791667-.6625 1.5625zm-5.6 3.2c-.66666667 0-1.30416667-.0958333-1.9125-.2875s-1.17083333-.4541667-1.6875-.7875c-.15.0333333-.3.0541667-.45.0625s-.30833333.0125-.475.0125c-1.51666667 0-2.80833333-.5333333-3.875-1.6s-1.6-2.3583333-1.6-3.875c0-1.45.48333333-2.6916667 1.45-3.725.96666667-1.03333333 2.15833333-1.60833333 3.575-1.725l-4.025-8.075h7l2 4 2-4h7l-4 8.025c1.4166667.13333333 2.6041667.71666667 3.5625 1.75.9583333 1.0333333 1.4375 2.275 1.4375 3.725 0 1.5333333-.5333333 2.8333333-1.6 3.9s-2.3666667 1.6-3.9 1.6c-.15 0-.3041667-.0041667-.4625-.0125s-.3125-.0291667-.4625-.0625c-.5166667.3333333-1.075.5958333-1.675.7875s-1.2333333.2875-1.9.2875zm-2.925-12.3-2.825-5.7zm5.85 0 2.85-5.7zm-4.775 8.55.7-2.275-1.85-1.325h2.275l.725-2.4.725 2.4h2.275l-1.85 1.325.7 2.275-1.85-1.4z" transform="translate(214 22)"/><path d="m0 18.8888889v-14.44444446l4.44444444 3.33333334 5.55555556-7.77777778 5.5555556 4.44444444h4.4444444v14.44444446zm5.55555556-3.3333333 4.44444444-6.11111116 7.7777778 6.05555556v-8.83333333h-3l-4.3333334-3.47222223-5.49999996 7.72222226-2.72222222-2.02777781v4.00000001z" transform="translate(150 23)"/><path d="m10 20c5.5228475 0 10-4.4771525 10-10s-4.4771525-10-10-10-10 4.4771525-10 10 4.4771525 10 10 10zm-.625-16.875c.6903559 0 1.25.55964406 1.25 1.25s-.5596441 1.25-1.25 1.25c-.69035594 0-1.25-.55964406-1.25-1.25s.55964406-1.25 1.25-1.25zm-1.25 5c0-.69035594.55964406-1.25 1.25-1.25.6903559 0 1.25.55964406 1.25 1.25s-.5596441 1.25-1.25 1.25c-.69035594 0-1.25-.55964406-1.25-1.25zm-2.5-2.5c.69035594 0 1.25.55964406 1.25 1.25s-.55964406 1.25-1.25 1.25-1.25-.55964406-1.25-1.25.55964406-1.25 1.25-1.25z" transform="translate(86 22)"/></g><g transform="translate(28 22)"><path d="m7.15901741 16.948004.18793092-.348365c-.61497335 1.1593044-1.26046412 2.2072145-1.93647228 3.14373-.08752695.1212565-.4694301.2032416-1.14570945.2459554l-.18569766.0106756-.19173841-.0106756c-.67627935-.0427138-1.0581825-.1246989-1.14570945-.2459554-.6062942-.8399365-1.18804073-1.7694769-1.74523956-2.788621.74327835.1335511 1.84153591.2189779 3.06638745.2189779 1.24043349 0 2.35103157-.0876141 3.09624844-.2257219z"/><path d="m8.12553795 15.1284237v1.0203591c0 .3536492-1.81897005.6403277-4.06276898.6403277-2.24379892 0-4.06276897-.2866785-4.06276897-.6403277v-1.0203591c.02811753.3498971 1.83629668.6321652 4.06276897.6321652 2.24379893 0 4.06276898-.2866785 4.06276898-.6403277l-.00253795.008z"/><path d="m5.2793735 6.16220174c-.00719607 1.30145882.2393803 1.75480202.73523575 2.98983486.62149237 1.5479582 1.33233908 4.0640447 1.33233908 5.7443959 0 .3228178-2.20076409.4627459-3.15660353.4738461l-.11127586.0007217-.11733144-.0007217c-.95583945-.0111002-3.15660354-.1510283-3.15660354-.4738461 0-1.6803512.71084671-4.1964377 1.33233908-5.7443959.49585545-1.23503284.74243182-1.68837604.74161439-2.98655482.04455701.00727635.432531.06415335 1.03447956.07337709l.15935891.00126326.16550195-.00126326c.64207846-.00983866 1.04070142-.07389613 1.04094565-.07665713zm-2.39248027.0901577c-.00813201.32741041-.01794443.60794352-.02119649.89706202.07231714.01648121.55706904.10265239 1.20722916.10265239l.00220806-.39107385.00393498.39107385c.65016012 0 1.13491202-.08617118 1.20722915-.10265239-.00325205-.2891185-.01306447-.56965161-.01306447-.89657895-.00143902-.01015946-.37873638.08349016-1.03144969.0979579l-.16564997.00119959-.16592305-.00119959c-.59832054-.0132621-.96521517-.09305896-1.02331768-.09844097zm1.19217571-6.25235944c.88353606.00449788 1.40841656.38116064 1.56858592 1.12998829.24025403 1.12324148-.16841866 1.56497571-.32642244 3.8595502l-.01626255.25058364c.00007266.00105381-.42630107.06068156-1.06741441.06984882l-.1614215.00102905-.16169458-.00102905c-.58768723-.00840333-.99493353-.05920747-1.05867079-.06842818-.01350134-.08094513-.01893155-.16505709-.02491871-.25200428-.15800379-2.29457449-.56667648-2.73630872-.32642244-3.8595502.16016936-.74882765.68504986-1.12549041 1.5746415-1.12998829z"/></g></g><g><path d="m0 18.8888889v-14.44444446l4.44444444 3.33333334 5.55555556-7.77777778 5.5555556 4.44444444h4.4444444v14.44444446zm5.55555556-3.3333333 4.44444444-6.11111116 7.7777778 6.05555556v-8.83333333h-3l-4.3333334-3.47222223-5.49999996 7.72222226-2.72222222-2.02777781v4.00000001z" fill-rule="nonzero" transform="translate(278 87)"/><path d="m10 20c5.5228475 0 10-4.4771525 10-10s-4.4771525-10-10-10-10 4.4771525-10 10 4.4771525 10 10 10zm-.625-16.875c.6903559 0 1.25.55964406 1.25 1.25s-.5596441 1.25-1.25 1.25c-.69035594 0-1.25-.55964406-1.25-1.25s.55964406-1.25 1.25-1.25zm-1.25 5c0-.69035594.55964406-1.25 1.25-1.25.6903559 0 1.25.55964406 1.25 1.25s-.5596441 1.25-1.25 1.25c-.69035594 0-1.25-.55964406-1.25-1.25zm-2.5-2.5c.69035594 0 1.25.55964406 1.25 1.25s-.55964406 1.25-1.25 1.25-1.25-.55964406-1.25-1.25.55964406-1.25 1.25-1.25z" fill-rule="nonzero" transform="translate(214 86)"/><g transform="translate(156 86)"><path d="m7.15901741 16.948004.18793092-.348365c-.61497335 1.1593044-1.26046412 2.2072145-1.93647228 3.14373-.08752695.1212565-.4694301.2032416-1.14570945.2459554l-.18569766.0106756-.19173841-.0106756c-.67627935-.0427138-1.0581825-.1246989-1.14570945-.2459554-.6062942-.8399365-1.18804073-1.7694769-1.74523956-2.788621.74327835.1335511 1.84153591.2189779 3.06638745.2189779 1.24043349 0 2.35103157-.0876141 3.09624844-.2257219z"/><path d="m8.12553795 15.1284237v1.0203591c0 .3536492-1.81897005.6403277-4.06276898.6403277-2.24379892 0-4.06276897-.2866785-4.06276897-.6403277v-1.0203591c.02811753.3498971 1.83629668.6321652 4.06276897.6321652 2.24379893 0 4.06276898-.2866785 4.06276898-.6403277l-.00253795.008z"/><path d="m5.2793735 6.16220174c-.00719607 1.30145882.2393803 1.75480202.73523575 2.98983486.62149237 1.5479582 1.33233908 4.0640447 1.33233908 5.7443959 0 .3228178-2.20076409.4627459-3.15660353.4738461l-.11127586.0007217-.11733144-.0007217c-.95583945-.0111002-3.15660354-.1510283-3.15660354-.4738461 0-1.6803512.71084671-4.1964377 1.33233908-5.7443959.49585545-1.23503284.74243182-1.68837604.74161439-2.98655482.04455701.00727635.432531.06415335 1.03447956.07337709l.15935891.00126326.16550195-.00126326c.64207846-.00983866 1.04070142-.07389613 1.04094565-.07665713zm-2.39248027.0901577c-.00813201.32741041-.01794443.60794352-.02119649.89706202.07231714.01648121.55706904.10265239 1.20722916.10265239l.00220806-.39107385.00393498.39107385c.65016012 0 1.13491202-.08617118 1.20722915-.10265239-.00325205-.2891185-.01306447-.56965161-.01306447-.89657895-.00143902-.01015946-.37873638.08349016-1.03144969.0979579l-.16564997.00119959-.16592305-.00119959c-.59832054-.0132621-.96521517-.09305896-1.02331768-.09844097zm1.19217571-6.25235944c.88353606.00449788 1.40841656.38116064 1.56858592 1.12998829.24025403 1.12324148-.16841866 1.56497571-.32642244 3.8595502l-.01626255.25058364c.00007266.00105381-.42630107.06068156-1.06741441.06984882l-.1614215.00102905-.16169458-.00102905c-.58768723-.00840333-.99493353-.05920747-1.05867079-.06842818-.01350134-.08094513-.01893155-.16505709-.02491871-.25200428-.15800379-2.29457449-.56667648-2.73630872-.32642244-3.8595502.16016936-.74882765.68504986-1.12549041 1.5746415-1.12998829z"/></g><g fill-rule="nonzero"><path d="m13 0c-1.990625 0-5 1-5 1v4c1.5 0 2.375.5 3.25 1s1.75 1 3.25 1c1.7625 0 5.5-.5 5.5-3s-4-4-7-4zm-9 3c0 1.103125.896875 2 2 2h1v-4h-1c-1.103125 0-2 .896875-2 2zm5 13c3 0 7-1.5 7-4s-3.7375-3-5.5-3c-1.5 0-2.375.5-3.25 1s-1.75 1-3.25 1v4s3.009375 1 5 1zm-9-3c0 1.103125.896875 2 2 2h1v-4h-1c-1.103125 0-2 .896875-2 2z" transform="translate(86 88)"/><path d="m10 18c1.25 0 2.3125-.4375 3.1875-1.3125s1.3125-1.9375 1.3125-3.1875-.4375-2.3125-1.3125-3.1875-1.9375-1.3125-3.1875-1.3125-2.3125.4375-3.1875 1.3125-1.3125 1.9375-1.3125 3.1875.4375 2.3125 1.3125 3.1875 1.9375 1.3125 3.1875 1.3125zm-2.925-10.3c.33333333-.18333333.6875-.32916667 1.0625-.4375s.75416667-.17916667 1.1375-.2125l-2.525-5.05h-2.5zm5.85 0 2.85-5.7h-2.525l-2.125 4.25.475.95c.2333333.06666667.4583333.1375.675.2125s.4333333.17083333.65.2875zm-8.525 9.1c-.28333333-.4833333-.50416667-1.0041667-.6625-1.5625s-.2375-1.1375-.2375-1.7375.07916667-1.1791667.2375-1.7375.37916667-1.0791667.6625-1.5625c-.7.2333333-1.275.6458333-1.725 1.2375s-.675 1.2791667-.675 2.0625.225 1.4708333.675 2.0625 1.025 1.0041667 1.725 1.2375zm11.2 0c.7-.2333333 1.275-.6458333 1.725-1.2375s.675-1.2791667.675-2.0625-.225-1.4708333-.675-2.0625-1.025-1.0041667-1.725-1.2375c.2833333.4833333.5041667 1.0041667.6625 1.5625s.2375 1.1375.2375 1.7375-.0791667 1.1791667-.2375 1.7375-.3791667 1.0791667-.6625 1.5625zm-5.6 3.2c-.66666667 0-1.30416667-.0958333-1.9125-.2875s-1.17083333-.4541667-1.6875-.7875c-.15.0333333-.3.0541667-.45.0625s-.30833333.0125-.475.0125c-1.51666667 0-2.80833333-.5333333-3.875-1.6s-1.6-2.3583333-1.6-3.875c0-1.45.48333333-2.6916667 1.45-3.725.96666667-1.03333333 2.15833333-1.60833333 3.575-1.725l-4.025-8.075h7l2 4 2-4h7l-4 8.025c1.4166667.13333333 2.6041667.71666667 3.5625 1.75.9583333 1.0333333 1.4375 2.275 1.4375 3.725 0 1.5333333-.5333333 2.8333333-1.6 3.9s-2.3666667 1.6-3.9 1.6c-.15 0-.3041667-.0041667-.4625-.0125s-.3125-.0291667-.4625-.0625c-.5166667.3333333-1.075.5958333-1.675.7875s-1.2333333.2875-1.9.2875zm-2.925-12.3-2.825-5.7zm5.85 0 2.85-5.7zm-4.775 8.55.7-2.275-1.85-1.325h2.275l.725-2.4.725 2.4h2.275l-1.85 1.325.7 2.275-1.85-1.4z" transform="translate(22 86)"/></g></g><g><g transform="translate(284 150)"><path d="m7.15901741 16.948004.18793092-.348365c-.61497335 1.1593044-1.26046412 2.2072145-1.93647228 3.14373-.08752695.1212565-.4694301.2032416-1.14570945.2459554l-.18569766.0106756-.19173841-.0106756c-.67627935-.0427138-1.0581825-.1246989-1.14570945-.2459554-.6062942-.8399365-1.18804073-1.7694769-1.74523956-2.788621.74327835.1335511 1.84153591.2189779 3.06638745.2189779 1.24043349 0 2.35103157-.0876141 3.09624844-.2257219z"/><path d="m8.12553795 15.1284237v1.0203591c0 .3536492-1.81897005.6403277-4.06276898.6403277-2.24379892 0-4.06276897-.2866785-4.06276897-.6403277v-1.0203591c.02811753.3498971 1.83629668.6321652 4.06276897.6321652 2.24379893 0 4.06276898-.2866785 4.06276898-.6403277l-.00253795.008z"/><path d="m5.2793735 6.16220174c-.00719607 1.30145882.2393803 1.75480202.73523575 2.98983486.62149237 1.5479582 1.33233908 4.0640447 1.33233908 5.7443959 0 .3228178-2.20076409.4627459-3.15660353.4738461l-.11127586.0007217-.11733144-.0007217c-.95583945-.0111002-3.15660354-.1510283-3.15660354-.4738461 0-1.6803512.71084671-4.1964377 1.33233908-5.7443959.49585545-1.23503284.74243182-1.68837604.74161439-2.98655482.04455701.00727635.432531.06415335 1.03447956.07337709l.15935891.00126326.16550195-.00126326c.64207846-.00983866 1.04070142-.07389613 1.04094565-.07665713zm-2.39248027.0901577c-.00813201.32741041-.01794443.60794352-.02119649.89706202.07231714.01648121.55706904.10265239 1.20722916.10265239l.00220806-.39107385.00393498.39107385c.65016012 0 1.13491202-.08617118 1.20722915-.10265239-.00325205-.2891185-.01306447-.56965161-.01306447-.89657895-.00143902-.01015946-.37873638.08349016-1.03144969.0979579l-.16564997.00119959-.16592305-.00119959c-.59832054-.0132621-.96521517-.09305896-1.02331768-.09844097zm1.19217571-6.25235944c.88353606.00449788 1.40841656.38116064 1.56858592 1.12998829.24025403 1.12324148-.16841866 1.56497571-.32642244 3.8595502l-.01626255.25058364c.00007266.00105381-.42630107.06068156-1.06741441.06984882l-.1614215.00102905-.16169458-.00102905c-.58768723-.00840333-.99493353-.05920747-1.05867079-.06842818-.01350134-.08094513-.01893155-.16505709-.02491871-.25200428-.15800379-2.29457449-.56667648-2.73630872-.32642244-3.8595502.16016936-.74882765.68504986-1.12549041 1.5746415-1.12998829z"/></g><g fill-rule="nonzero"><path d="m13 0c-1.990625 0-5 1-5 1v4c1.5 0 2.375.5 3.25 1s1.75 1 3.25 1c1.7625 0 5.5-.5 5.5-3s-4-4-7-4zm-9 3c0 1.103125.896875 2 2 2h1v-4h-1c-1.103125 0-2 .896875-2 2zm5 13c3 0 7-1.5 7-4s-3.7375-3-5.5-3c-1.5 0-2.375.5-3.25 1s-1.75 1-3.25 1v4s3.009375 1 5 1zm-9-3c0 1.103125.896875 2 2 2h1v-4h-1c-1.103125 0-2 .896875-2 2z" transform="translate(214 152)"/><path d="m10 18c1.25 0 2.3125-.4375 3.1875-1.3125s1.3125-1.9375 1.3125-3.1875-.4375-2.3125-1.3125-3.1875-1.9375-1.3125-3.1875-1.3125-2.3125.4375-3.1875 1.3125-1.3125 1.9375-1.3125 3.1875.4375 2.3125 1.3125 3.1875 1.9375 1.3125 3.1875 1.3125zm-2.925-10.3c.33333333-.18333333.6875-.32916667 1.0625-.4375s.75416667-.17916667 1.1375-.2125l-2.525-5.05h-2.5zm5.85 0 2.85-5.7h-2.525l-2.125 4.25.475.95c.2333333.06666667.4583333.1375.675.2125s.4333333.17083333.65.2875zm-8.525 9.1c-.28333333-.4833333-.50416667-1.0041667-.6625-1.5625s-.2375-1.1375-.2375-1.7375.07916667-1.1791667.2375-1.7375.37916667-1.0791667.6625-1.5625c-.7.2333333-1.275.6458333-1.725 1.2375s-.675 1.2791667-.675 2.0625.225 1.4708333.675 2.0625 1.025 1.0041667 1.725 1.2375zm11.2 0c.7-.2333333 1.275-.6458333 1.725-1.2375s.675-1.2791667.675-2.0625-.225-1.4708333-.675-2.0625-1.025-1.0041667-1.725-1.2375c.2833333.4833333.5041667 1.0041667.6625 1.5625s.2375 1.1375.2375 1.7375-.0791667 1.1791667-.2375 1.7375-.3791667 1.0791667-.6625 1.5625zm-5.6 3.2c-.66666667 0-1.30416667-.0958333-1.9125-.2875s-1.17083333-.4541667-1.6875-.7875c-.15.0333333-.3.0541667-.45.0625s-.30833333.0125-.475.0125c-1.51666667 0-2.80833333-.5333333-3.875-1.6s-1.6-2.3583333-1.6-3.875c0-1.45.48333333-2.6916667 1.45-3.725.96666667-1.03333333 2.15833333-1.60833333 3.575-1.725l-4.025-8.075h7l2 4 2-4h7l-4 8.025c1.4166667.13333333 2.6041667.71666667 3.5625 1.75.9583333 1.0333333 1.4375 2.275 1.4375 3.725 0 1.5333333-.5333333 2.8333333-1.6 3.9s-2.3666667 1.6-3.9 1.6c-.15 0-.3041667-.0041667-.4625-.0125s-.3125-.0291667-.4625-.0625c-.5166667.3333333-1.075.5958333-1.675.7875s-1.2333333.2875-1.9.2875zm-2.925-12.3-2.825-5.7zm5.85 0 2.85-5.7zm-4.775 8.55.7-2.275-1.85-1.325h2.275l.725-2.4.725 2.4h2.275l-1.85 1.325.7 2.275-1.85-1.4z" transform="translate(150 150)"/><path d="m0 18.8888889v-14.44444446l4.44444444 3.33333334 5.55555556-7.77777778 5.5555556 4.44444444h4.4444444v14.44444446zm5.55555556-3.3333333 4.44444444-6.11111116 7.7777778 6.05555556v-8.83333333h-3l-4.3333334-3.47222223-5.49999996 7.72222226-2.72222222-2.02777781v4.00000001z" transform="translate(86 151)"/><path d="m10 20c5.5228475 0 10-4.4771525 10-10s-4.4771525-10-10-10-10 4.4771525-10 10 4.4771525 10 10 10zm-.625-16.875c.6903559 0 1.25.55964406 1.25 1.25s-.5596441 1.25-1.25 1.25c-.69035594 0-1.25-.55964406-1.25-1.25s.55964406-1.25 1.25-1.25zm-1.25 5c0-.69035594.55964406-1.25 1.25-1.25.6903559 0 1.25.55964406 1.25 1.25s-.5596441 1.25-1.25 1.25c-.69035594 0-1.25-.55964406-1.25-1.25zm-2.5-2.5c.69035594 0 1.25.55964406 1.25 1.25s-.55964406 1.25-1.25 1.25-1.25-.55964406-1.25-1.25.55964406-1.25 1.25-1.25z" transform="translate(22 150)"/></g></g><g><g fill-rule="nonzero"><path d="m10 18c1.25 0 2.3125-.4375 3.1875-1.3125s1.3125-1.9375 1.3125-3.1875-.4375-2.3125-1.3125-3.1875-1.9375-1.3125-3.1875-1.3125-2.3125.4375-3.1875 1.3125-1.3125 1.9375-1.3125 3.1875.4375 2.3125 1.3125 3.1875 1.9375 1.3125 3.1875 1.3125zm-2.925-10.3c.33333333-.18333333.6875-.32916667 1.0625-.4375s.75416667-.17916667 1.1375-.2125l-2.525-5.05h-2.5zm5.85 0 2.85-5.7h-2.525l-2.125 4.25.475.95c.2333333.06666667.4583333.1375.675.2125s.4333333.17083333.65.2875zm-8.525 9.1c-.28333333-.4833333-.50416667-1.0041667-.6625-1.5625s-.2375-1.1375-.2375-1.7375.07916667-1.1791667.2375-1.7375.37916667-1.0791667.6625-1.5625c-.7.2333333-1.275.6458333-1.725 1.2375s-.675 1.2791667-.675 2.0625.225 1.4708333.675 2.0625 1.025 1.0041667 1.725 1.2375zm11.2 0c.7-.2333333 1.275-.6458333 1.725-1.2375s.675-1.2791667.675-2.0625-.225-1.4708333-.675-2.0625-1.025-1.0041667-1.725-1.2375c.2833333.4833333.5041667 1.0041667.6625 1.5625s.2375 1.1375.2375 1.7375-.0791667 1.1791667-.2375 1.7375-.3791667 1.0791667-.6625 1.5625zm-5.6 3.2c-.66666667 0-1.30416667-.0958333-1.9125-.2875s-1.17083333-.4541667-1.6875-.7875c-.15.0333333-.3.0541667-.45.0625s-.30833333.0125-.475.0125c-1.51666667 0-2.80833333-.5333333-3.875-1.6s-1.6-2.3583333-1.6-3.875c0-1.45.48333333-2.6916667 1.45-3.725.96666667-1.03333333 2.15833333-1.60833333 3.575-1.725l-4.025-8.075h7l2 4 2-4h7l-4 8.025c1.4166667.13333333 2.6041667.71666667 3.5625 1.75.9583333 1.0333333 1.4375 2.275 1.4375 3.725 0 1.5333333-.5333333 2.8333333-1.6 3.9s-2.3666667 1.6-3.9 1.6c-.15 0-.3041667-.0041667-.4625-.0125s-.3125-.0291667-.4625-.0625c-.5166667.3333333-1.075.5958333-1.675.7875s-1.2333333.2875-1.9.2875zm-2.925-12.3-2.825-5.7zm5.85 0 2.85-5.7zm-4.775 8.55.7-2.275-1.85-1.325h2.275l.725-2.4.725 2.4h2.275l-1.85 1.325.7 2.275-1.85-1.4z" transform="translate(278 214)"/><path d="m0 18.8888889v-14.44444446l4.44444444 3.33333334 5.55555556-7.77777778 5.5555556 4.44444444h4.4444444v14.44444446zm5.55555556-3.3333333 4.44444444-6.11111116 7.7777778 6.05555556v-8.83333333h-3l-4.3333334-3.47222223-5.49999996 7.72222226-2.72222222-2.02777781v4.00000001z" transform="translate(214 215)"/><path d="m10 20c5.5228475 0 10-4.4771525 10-10s-4.4771525-10-10-10-10 4.4771525-10 10 4.4771525 10 10 10zm-.625-16.875c.6903559 0 1.25.55964406 1.25 1.25s-.5596441 1.25-1.25 1.25c-.69035594 0-1.25-.55964406-1.25-1.25s.55964406-1.25 1.25-1.25zm-1.25 5c0-.69035594.55964406-1.25 1.25-1.25.6903559 0 1.25.55964406 1.25 1.25s-.5596441 1.25-1.25 1.25c-.69035594 0-1.25-.55964406-1.25-1.25zm-2.5-2.5c.69035594 0 1.25.55964406 1.25 1.25s-.55964406 1.25-1.25 1.25-1.25-.55964406-1.25-1.25.55964406-1.25 1.25-1.25z" transform="translate(150 214)"/></g><g transform="translate(92 214)"><path d="m7.15901741 16.948004.18793092-.348365c-.61497335 1.1593044-1.26046412 2.2072145-1.93647228 3.14373-.08752695.1212565-.4694301.2032416-1.14570945.2459554l-.18569766.0106756-.19173841-.0106756c-.67627935-.0427138-1.0581825-.1246989-1.14570945-.2459554-.6062942-.8399365-1.18804073-1.7694769-1.74523956-2.788621.74327835.1335511 1.84153591.2189779 3.06638745.2189779 1.24043349 0 2.35103157-.0876141 3.09624844-.2257219z"/><path d="m8.12553795 15.1284237v1.0203591c0 .3536492-1.81897005.6403277-4.06276898.6403277-2.24379892 0-4.06276897-.2866785-4.06276897-.6403277v-1.0203591c.02811753.3498971 1.83629668.6321652 4.06276897.6321652 2.24379893 0 4.06276898-.2866785 4.06276898-.6403277l-.00253795.008z"/><path d="m5.2793735 6.16220174c-.00719607 1.30145882.2393803 1.75480202.73523575 2.98983486.62149237 1.5479582 1.33233908 4.0640447 1.33233908 5.7443959 0 .3228178-2.20076409.4627459-3.15660353.4738461l-.11127586.0007217-.11733144-.0007217c-.95583945-.0111002-3.15660354-.1510283-3.15660354-.4738461 0-1.6803512.71084671-4.1964377 1.33233908-5.7443959.49585545-1.23503284.74243182-1.68837604.74161439-2.98655482.04455701.00727635.432531.06415335 1.03447956.07337709l.15935891.00126326.16550195-.00126326c.64207846-.00983866 1.04070142-.07389613 1.04094565-.07665713zm-2.39248027.0901577c-.00813201.32741041-.01794443.60794352-.02119649.89706202.07231714.01648121.55706904.10265239 1.20722916.10265239l.00220806-.39107385.00393498.39107385c.65016012 0 1.13491202-.08617118 1.20722915-.10265239-.00325205-.2891185-.01306447-.56965161-.01306447-.89657895-.00143902-.01015946-.37873638.08349016-1.03144969.0979579l-.16564997.00119959-.16592305-.00119959c-.59832054-.0132621-.96521517-.09305896-1.02331768-.09844097zm1.19217571-6.25235944c.88353606.00449788 1.40841656.38116064 1.56858592 1.12998829.24025403 1.12324148-.16841866 1.56497571-.32642244 3.8595502l-.01626255.25058364c.00007266.00105381-.42630107.06068156-1.06741441.06984882l-.1614215.00102905-.16169458-.00102905c-.58768723-.00840333-.99493353-.05920747-1.05867079-.06842818-.01350134-.08094513-.01893155-.16505709-.02491871-.25200428-.15800379-2.29457449-.56667648-2.73630872-.32642244-3.8595502.16016936-.74882765.68504986-1.12549041 1.5746415-1.12998829z"/></g><path d="m13 0c-1.990625 0-5 1-5 1v4c1.5 0 2.375.5 3.25 1s1.75 1 3.25 1c1.7625 0 5.5-.5 5.5-3s-4-4-7-4zm-9 3c0 1.103125.896875 2 2 2h1v-4h-1c-1.103125 0-2 .896875-2 2zm5 13c3 0 7-1.5 7-4s-3.7375-3-5.5-3c-1.5 0-2.375.5-3.25 1s-1.75 1-3.25 1v4s3.009375 1 5 1zm-9-3c0 1.103125.896875 2 2 2h1v-4h-1c-1.103125 0-2 .896875-2 2z" fill-rule="nonzero" transform="translate(22 216)"/></g><g><path d="m10 20c5.5228475 0 10-4.4771525 10-10s-4.4771525-10-10-10-10 4.4771525-10 10 4.4771525 10 10 10zm-.625-16.875c.6903559 0 1.25.55964406 1.25 1.25s-.5596441 1.25-1.25 1.25c-.69035594 0-1.25-.55964406-1.25-1.25s.55964406-1.25 1.25-1.25zm-1.25 5c0-.69035594.55964406-1.25 1.25-1.25.6903559 0 1.25.55964406 1.25 1.25s-.5596441 1.25-1.25 1.25c-.69035594 0-1.25-.55964406-1.25-1.25zm-2.5-2.5c.69035594 0 1.25.55964406 1.25 1.25s-.55964406 1.25-1.25 1.25-1.25-.55964406-1.25-1.25.55964406-1.25 1.25-1.25z" fill-rule="nonzero" transform="translate(278 278)"/><g transform="translate(220 278)"><path d="m7.15901741 16.948004.18793092-.348365c-.61497335 1.1593044-1.26046412 2.2072145-1.93647228 3.14373-.08752695.1212565-.4694301.2032416-1.14570945.2459554l-.18569766.0106756-.19173841-.0106756c-.67627935-.0427138-1.0581825-.1246989-1.14570945-.2459554-.6062942-.8399365-1.18804073-1.7694769-1.74523956-2.788621.74327835.1335511 1.84153591.2189779 3.06638745.2189779 1.24043349 0 2.35103157-.0876141 3.09624844-.2257219z"/><path d="m8.12553795 15.1284237v1.0203591c0 .3536492-1.81897005.6403277-4.06276898.6403277-2.24379892 0-4.06276897-.2866785-4.06276897-.6403277v-1.0203591c.02811753.3498971 1.83629668.6321652 4.06276897.6321652 2.24379893 0 4.06276898-.2866785 4.06276898-.6403277l-.00253795.008z"/><path d="m5.2793735 6.16220174c-.00719607 1.30145882.2393803 1.75480202.73523575 2.98983486.62149237 1.5479582 1.33233908 4.0640447 1.33233908 5.7443959 0 .3228178-2.20076409.4627459-3.15660353.4738461l-.11127586.0007217-.11733144-.0007217c-.95583945-.0111002-3.15660354-.1510283-3.15660354-.4738461 0-1.6803512.71084671-4.1964377 1.33233908-5.7443959.49585545-1.23503284.74243182-1.68837604.74161439-2.98655482.04455701.00727635.432531.06415335 1.03447956.07337709l.15935891.00126326.16550195-.00126326c.64207846-.00983866 1.04070142-.07389613 1.04094565-.07665713zm-2.39248027.0901577c-.00813201.32741041-.01794443.60794352-.02119649.89706202.07231714.01648121.55706904.10265239 1.20722916.10265239l.00220806-.39107385.00393498.39107385c.65016012 0 1.13491202-.08617118 1.20722915-.10265239-.00325205-.2891185-.01306447-.56965161-.01306447-.89657895-.00143902-.01015946-.37873638.08349016-1.03144969.0979579l-.16564997.00119959-.16592305-.00119959c-.59832054-.0132621-.96521517-.09305896-1.02331768-.09844097zm1.19217571-6.25235944c.88353606.00449788 1.40841656.38116064 1.56858592 1.12998829.24025403 1.12324148-.16841866 1.56497571-.32642244 3.8595502l-.01626255.25058364c.00007266.00105381-.42630107.06068156-1.06741441.06984882l-.1614215.00102905-.16169458-.00102905c-.58768723-.00840333-.99493353-.05920747-1.05867079-.06842818-.01350134-.08094513-.01893155-.16505709-.02491871-.25200428-.15800379-2.29457449-.56667648-2.73630872-.32642244-3.8595502.16016936-.74882765.68504986-1.12549041 1.5746415-1.12998829z"/></g><g fill-rule="nonzero"><path d="m13 0c-1.990625 0-5 1-5 1v4c1.5 0 2.375.5 3.25 1s1.75 1 3.25 1c1.7625 0 5.5-.5 5.5-3s-4-4-7-4zm-9 3c0 1.103125.896875 2 2 2h1v-4h-1c-1.103125 0-2 .896875-2 2zm5 13c3 0 7-1.5 7-4s-3.7375-3-5.5-3c-1.5 0-2.375.5-3.25 1s-1.75 1-3.25 1v4s3.009375 1 5 1zm-9-3c0 1.103125.896875 2 2 2h1v-4h-1c-1.103125 0-2 .896875-2 2z" transform="translate(150 280)"/><path d="m10 18c1.25 0 2.3125-.4375 3.1875-1.3125s1.3125-1.9375 1.3125-3.1875-.4375-2.3125-1.3125-3.1875-1.9375-1.3125-3.1875-1.3125-2.3125.4375-3.1875 1.3125-1.3125 1.9375-1.3125 3.1875.4375 2.3125 1.3125 3.1875 1.9375 1.3125 3.1875 1.3125zm-2.925-10.3c.33333333-.18333333.6875-.32916667 1.0625-.4375s.75416667-.17916667 1.1375-.2125l-2.525-5.05h-2.5zm5.85 0 2.85-5.7h-2.525l-2.125 4.25.475.95c.2333333.06666667.4583333.1375.675.2125s.4333333.17083333.65.2875zm-8.525 9.1c-.28333333-.4833333-.50416667-1.0041667-.6625-1.5625s-.2375-1.1375-.2375-1.7375.07916667-1.1791667.2375-1.7375.37916667-1.0791667.6625-1.5625c-.7.2333333-1.275.6458333-1.725 1.2375s-.675 1.2791667-.675 2.0625.225 1.4708333.675 2.0625 1.025 1.0041667 1.725 1.2375zm11.2 0c.7-.2333333 1.275-.6458333 1.725-1.2375s.675-1.2791667.675-2.0625-.225-1.4708333-.675-2.0625-1.025-1.0041667-1.725-1.2375c.2833333.4833333.5041667 1.0041667.6625 1.5625s.2375 1.1375.2375 1.7375-.0791667 1.1791667-.2375 1.7375-.3791667 1.0791667-.6625 1.5625zm-5.6 3.2c-.66666667 0-1.30416667-.0958333-1.9125-.2875s-1.17083333-.4541667-1.6875-.7875c-.15.0333333-.3.0541667-.45.0625s-.30833333.0125-.475.0125c-1.51666667 0-2.80833333-.5333333-3.875-1.6s-1.6-2.3583333-1.6-3.875c0-1.45.48333333-2.6916667 1.45-3.725.96666667-1.03333333 2.15833333-1.60833333 3.575-1.725l-4.025-8.075h7l2 4 2-4h7l-4 8.025c1.4166667.13333333 2.6041667.71666667 3.5625 1.75.9583333 1.0333333 1.4375 2.275 1.4375 3.725 0 1.5333333-.5333333 2.8333333-1.6 3.9s-2.3666667 1.6-3.9 1.6c-.15 0-.3041667-.0041667-.4625-.0125s-.3125-.0291667-.4625-.0625c-.5166667.3333333-1.075.5958333-1.675.7875s-1.2333333.2875-1.9.2875zm-2.925-12.3-2.825-5.7zm5.85 0 2.85-5.7zm-4.775 8.55.7-2.275-1.85-1.325h2.275l.725-2.4.725 2.4h2.275l-1.85 1.325.7 2.275-1.85-1.4z" transform="translate(86 278)"/><path d="m0 18.8888889v-14.44444446l4.44444444 3.33333334 5.55555556-7.77777778 5.5555556 4.44444444h4.4444444v14.44444446zm5.55555556-3.3333333 4.44444444-6.11111116 7.7777778 6.05555556v-8.83333333h-3l-4.3333334-3.47222223-5.49999996 7.72222226-2.72222222-2.02777781v4.00000001z" transform="translate(22 279)"/></g></g></g></svg>