<?xml version="1.0" encoding="UTF-8"?>
<svg width="177px" height="444px" viewBox="0 0 177 444" version="1.1" xmlns="http://www.w3.org/2000/svg" xmlns:xlink="http://www.w3.org/1999/xlink">
    <title>Pin</title>
    <defs>
        <radialGradient cx="-33.4783478%" cy="-391.242158%" fx="-33.4783478%" fy="-391.242158%" r="575.875347%" gradientTransform="translate(-0.3348, -3.9124), scale(0.6483, 1), translate(0.3348, 3.9124)" id="radialGradient-1">
            <stop stop-color="#FFFFFF" offset="0%"></stop>
            <stop stop-color="#E4E4E4" offset="55%"></stop>
            <stop stop-color="#808080" offset="100%"></stop>
        </radialGradient>
        <radialGradient cx="-33.8616602%" cy="-5.61460026%" fx="-33.8616602%" fy="-5.61460026%" r="373.628462%" gradientTransform="translate(-0.3386, -0.0561), scale(1, 0.424), translate(0.3386, 0.0561)" id="radialGradient-2">
            <stop stop-color="#FFFFFF" offset="0%"></stop>
            <stop stop-color="#E4E4E4" offset="55%"></stop>
            <stop stop-color="#808080" offset="100%"></stop>
        </radialGradient>
    </defs>
    <g id="Pin" stroke="none" stroke-width="1" fill="none" fill-rule="evenodd">
        <g>
            <g id="PinBase" transform="translate(16, 350)" fill="url(#radialGradient-1)">
                <path d="M145,0 C144.226457,58.491059 128.656609,84.435563 128.656609,84.435563 C128.656609,84.435563 103.436065,94 72.5,94 C41.5639348,94 16.4846087,84.435563 16.4846087,84.435563 C16.4846087,84.435563 0.773543478,58.491059 0,0" id="Path"></path>
            </g>
            <g id="BaseRing" transform="translate(0, 319)">
                <path d="M177,16.0095557 C177,24.8434464 137.37706,32.0050964 88.5,32.0050964 C39.6229396,32.0050964 0,24.8434464 0,16.0095557 L0,32.0050964 C0,40.8389871 39.6229396,48 88.5,48 C137.37706,48 177,40.8389871 177,32.0050964 C177,23.1712056 177,7.17566491 177,16.0095557 Z" id="Path" fill="#0F57CA"></path>
                <path d="M0,15.9949036 C0,7.1610129 39.6229396,0 88.5,0 C137.37706,0 177,7.1610129 177,15.9949036 C177,24.8287944 137.37706,31.9898073 88.5,31.9898073 C39.6229396,31.9898073 0,24.8287944 0,15.9949036" id="Path" fill="#1E4686"></path>
            </g>
            <g id="PinBody" transform="translate(16, 0)" fill="url(#radialGradient-2)">
                <path d="M0.00187387351,332.846019 C-0.284393305,337.940062 32.2651983,342 72.5009369,342 C112.736676,342 145,337.327563 145,332.846019 C141.668027,273.545514 115.699414,230.638991 103.471626,175.496399 C96.358013,143.415746 94.3085426,102.602086 103.471626,59.54955 C111.185639,23.3065599 97.3624814,0 72.5009369,0 C47.6393924,0 33.815601,23.3065599 41.5302482,59.54955 C50.6933312,102.602086 48.6438609,143.415746 41.5302482,175.496399 C29.3024596,230.638991 3.33321317,273.545514 0.00187387351,332.846019 Z" id="Path"></path>
            </g>
            <g id="NeckRings" transform="translate(63, 104)" fill="#D60C0C">
                <path d="M50.5774937,20.4365644 C50.5774937,22.733918 39.2361791,24.5960295 25.5083939,24.5960295 C11.7799712,24.5960295 0.432918404,22.733918 0.432918404,20.4365644 L0,30.8405349 C0,33.1378885 11.7799712,35 25.5083939,35 C39.2361791,35 51.192123,32.8912305 50.9976604,30.6019948 C50.7757818,27.9842981 50.5774937,20.3354034 50.5774937,20.4365644 L50.5774937,20.4365644 Z" id="Path"></path>
                <path d="M50.8580299,0.000795889489 C50.8580299,2.29814944 39.2361791,4.16088542 25.5083939,4.16088542 C11.7799712,4.16088542 0.15301976,2.29814944 0.15301976,0.000795889489 L0.521542348,10.4053909 C0.521542348,12.70212 11.7799712,14.5648559 25.5083939,14.5648559 C39.2361791,14.5648559 50.5099099,12.70212 50.5099099,10.4053909 C50.5099099,8.10803731 50.8580299,-0.0928716922 50.8580299,0.000795889489 Z" id="Path"></path>
            </g>
        </g>
    </g>
</svg>